<svg width="1200" height="750" viewBox="0 0 1200 750" fill="none" xmlns="http://www.w3.org/2000/svg">
  <rect width="1200" height="750" fill="#F5F0E8"/>
  <rect x="40" y="40" width="1120" height="670" rx="12" fill="#FBF8F3" stroke="#D4C5B0" stroke-width="2"/>
  <text x="600" y="60" text-anchor="middle" font-family="Georgia, serif" font-size="28" font-weight="bold" fill="#5C4A32">
    <tspan fill="#5C4A32">PALE</tspan><tspan font-style="italic" fill="#8B7355">SCRIPT</tspan>
  </text>
  <text x="150" y="120" font-family="Georgia, serif" font-size="32" fill="#2D2A26">Welcome back, <tspan fill="#A67C52">Mathias</tspan>!</text>
  <rect x="550" y="140" width="50" height="50" rx="8" fill="#A67C52"/>
  <text x="575" y="172" text-anchor="middle" font-family="sans-serif" font-size="24" fill="white">+</text>
  <rect x="620" y="140" width="50" height="50" rx="8" fill="#5C4A32"/>
  <text x="380" y="250" font-family="Georgia, serif" font-size="24" fill="#2D2A26">Recent entries</text>
  <!-- Book placeholders -->
  <rect x="100" y="280" width="150" height="220" rx="4" fill="#3D5A80"/>
  <rect x="280" y="280" width="150" height="220" rx="4" fill="#98C1D9"/>
  <rect x="460" y="280" width="150" height="220" rx="4" fill="#E0FBFC"/>
  <rect x="640" y="280" width="150" height="220" rx="4" fill="#EE6C4D"/>
  <rect x="820" y="280" width="150" height="220" rx="4" fill="#293241"/>
  <!-- Entry counts -->
  <rect x="100" y="520" width="150" height="30" rx="15" fill="#5C9E7D"/>
  <rect x="280" y="520" width="150" height="30" rx="15" fill="#5C9E7D"/>
  <rect x="460" y="520" width="150" height="30" rx="15" fill="#5C9E7D"/>
  <rect x="640" y="520" width="150" height="30" rx="15" fill="#5C9E7D"/>
  <rect x="820" y="520" width="150" height="30" rx="15" fill="#5C9E7D"/>
</svg>
